<svg width="14" height="15" viewBox="0 0 14 15" fill="none" xmlns="http://www.w3.org/2000/svg">
<g opacity="0.9">
<path fill-rule="evenodd" clip-rule="evenodd" d="M7.35 0.714233C4.9 0.714233 2.73 2.07138 1.61 4.1428L0 2.49995V7.1428H4.55L2.59 5.1428C3.5 3.35709 5.25 2.1428 7.35 2.1428C10.22 2.1428 12.6 4.57138 12.6 7.49995C12.6 10.4285 10.22 12.8571 7.35 12.8571C5.04 12.8571 3.15 11.3571 2.38 9.28566H0.91C1.68 12.1428 4.27 14.2857 7.35 14.2857C11.06 14.2857 14 11.2142 14 7.49995C14 3.78566 10.99 0.714233 7.35 0.714233ZM6.3 4.28566V7.92852L9.59 9.92852L10.15 8.99995L7.35 7.28566V4.28566H6.3Z" fill="white"/>
</g>
</svg>
