<svg width="15" height="15" viewBox="0 0 15 15" fill="#FFFFFF" xmlns="http://www.w3.org/2000/svg">
    <path d="M7.5 0C7.5 0 2.8605 4.45 0.26775 6.86C0.1155 7.01333 0 7.23667 0 7.5C0 7.96083 0.33525 8.33333 0.75 8.33333H2.25V14.1667C2.25 14.6275 2.58525 15 3 15H5.25C5.66475 15 6 14.6267 6 14.1667V10.8333H9V14.1667C9 14.6267 9.33525 15 9.75 15H12C12.4147 15 12.75 14.6275 12.75 14.1667V8.33333H14.25C14.6647 8.33333 15 7.96083 15 7.5C15 7.23667 14.8845 7.01333 14.7128 6.86C12.138 4.45 7.5 0 7.5 0Z" fill="#FFFFFF"/>
</svg>

