<svg width="50" height="50" viewBox="0 0 50 50" fill="none" xmlns="http://www.w3.org/2000/svg">
<circle cx="25" cy="20.8334" r="6.25" fill="#222222"/>
<circle cx="25" cy="25" r="18.75" stroke="#222222" stroke-width="1.2"/>
<path d="M36.916 39.402C37.2643 39.1447 37.4125 38.6903 37.243 38.2919C36.4198 36.3568 34.9042 34.6541 32.878 33.4026C30.6179 32.0066 27.8488 31.25 25 31.25C22.1513 31.25 19.3821 32.0066 17.1221 33.4026C15.0893 34.6581 13.5706 36.3676 12.7492 38.3104C12.5844 38.7002 12.7229 39.1446 13.0565 39.405L14.885 40.8322L16.3396 41.5257L17.659 42.2869L19.249 42.862L21.2449 43.3694L21.5112 43.403C23.8272 43.6951 26.1714 43.6838 28.4844 43.3694V43.3694L31.8336 42.4899L34.9797 40.8322L36.916 39.402Z" fill="#7E869E" fill-opacity="0.25" stroke="#222222" stroke-width="1.2" stroke-linecap="round"/>
</svg>
